<?xml version="1.0" ?><!DOCTYPE svg  PUBLIC '-//W3C//DTD SVG 1.1//EN'  'http://www.w3.org/Graphics/SVG/1.1/DTD/svg11.dtd'><svg enable-background="new 0 0 64 64" id="Layer_1" version="1.1" viewBox="0 0 64 64" xml:space="preserve" xmlns="http://www.w3.org/2000/svg" xmlns:xlink="http://www.w3.org/1999/xlink"><g><path d="M46.3,12.9c-1.8,0-3.6,0.8-5,2.2l-4.2,4.2l-6.1-0.2l1.7-1.7c0.4-0.4,0.4-1,0-1.4s-1-0.4-1.4,0l-3,3l-12.9-0.4   c-0.3,0-0.5,0.1-0.7,0.3L11.6,22c-0.3,0.3-0.4,0.6-0.3,1s0.4,0.6,0.7,0.7l16.3,4.5L16.9,39.6c-0.1,0.1-0.2,0.2-0.2,0.3l-0.3,0.8   l-7.6-0.1c-0.3,0-0.5,0.1-0.7,0.3l-2.5,2.5c-0.3,0.3-0.4,0.6-0.3,1S5.6,45,6,45.1l7.7,2.1l-1.4,3.5c-0.2,0.4-0.1,0.8,0.2,1.1   c0.2,0.2,0.4,0.3,0.7,0.3c0.1,0,0.3,0,0.4-0.1l3.4-1.4l2.1,7.6c0.1,0.3,0.4,0.6,0.7,0.7c0.1,0,0.2,0,0.3,0c0.3,0,0.5-0.1,0.7-0.3   l2.5-2.5c0.2-0.2,0.3-0.4,0.3-0.7l-0.1-7.5l0.9-0.4c0.1,0,0.2-0.1,0.3-0.2l11.4-11.4l4.5,16.3c0.1,0.3,0.4,0.6,0.7,0.7   c0.1,0,0.2,0,0.3,0c0.3,0,0.5-0.1,0.7-0.3l3.1-3.1c0.2-0.2,0.3-0.5,0.3-0.7l-0.4-12.9l3-3c0.4-0.4,0.4-1,0-1.4s-1-0.4-1.4,0L45,33   l-0.2-6.1l4.2-4.2c2.6-2.6,2.9-6.4,0.8-8.5C48.9,13.4,47.7,12.9,46.3,12.9z M9.1,42.6l6.3,0.1l-1.1,2.6l-6.2-1.7L9.1,42.6z    M20.5,55.9l-1.7-6.2l2.6-1.1l0.1,6.3L20.5,55.9z M14.2,22.2l1.6-1.6l19.4,0.6l-2.6,2.6l-2.6,2.6L14.2,22.2z M43.5,48.3l-1.6,1.6   l-4.3-15.7l5.3-5.3L43.5,48.3z M47.5,21.4L43,25.8c0,0,0,0,0,0l-7.3,7.3c0,0,0,0,0,0L23.2,45.6L15,49.1l3.5-8.3l12.5-12.5   c0,0,0,0,0,0l6.5-6.5l5.3-5.3c1-1,2.3-1.6,3.6-1.6c0.6,0,1.4,0.1,2.1,0.8C49.7,17,49.3,19.6,47.5,21.4z"/></g></svg>