<?xml version="1.0" ?><svg enable-background="new 0 0 200 200" id="Layer_1" version="1.1" viewBox="0 0 200 200" xml:space="preserve" xmlns="http://www.w3.org/2000/svg" xmlns:xlink="http://www.w3.org/1999/xlink"><g><path d="M41.239,149.498h-4.401c-1.933,0-3.5,1.567-3.5,3.5s1.567,3.5,3.5,3.5h4.401c1.933,0,3.5-1.567,3.5-3.5   S43.172,149.498,41.239,149.498z" fill="#1D1D1B"/><path d="M59.954,149.498h-4.401c-1.933,0-3.5,1.567-3.5,3.5s1.567,3.5,3.5,3.5h4.401c1.933,0,3.5-1.567,3.5-3.5   S61.887,149.498,59.954,149.498z" fill="#1D1D1B"/><path d="M49.253,156.771c-1.933,0-3.5,1.567-3.5,3.5v4.473c0,1.933,1.567,3.5,3.5,3.5s3.5-1.567,3.5-3.5v-4.473   C52.753,158.338,51.186,156.771,49.253,156.771z" fill="#1D1D1B"/><path d="M49.253,149.225c1.933,0,3.5-1.567,3.5-3.5v-4.473c0-1.933-1.567-3.5-3.5-3.5s-3.5,1.567-3.5,3.5v4.473   C45.753,147.658,47.32,149.225,49.253,149.225z" fill="#1D1D1B"/><path d="M153.598,79.413h-4.401c-1.933,0-3.5,1.567-3.5,3.5s1.567,3.5,3.5,3.5h4.401c1.933,0,3.5-1.567,3.5-3.5   S155.531,79.413,153.598,79.413z" fill="#1D1D1B"/><path d="M172.313,79.413h-4.401c-1.933,0-3.5,1.567-3.5,3.5s1.567,3.5,3.5,3.5h4.401c1.933,0,3.5-1.567,3.5-3.5   S174.247,79.413,172.313,79.413z" fill="#1D1D1B"/><path d="M161.612,86.687c-1.933,0-3.5,1.567-3.5,3.5v4.473c0,1.933,1.567,3.5,3.5,3.5s3.5-1.567,3.5-3.5v-4.473   C165.112,88.253,163.545,86.687,161.612,86.687z" fill="#1D1D1B"/><path d="M161.612,79.14c1.933,0,3.5-1.567,3.5-3.5v-4.473c0-1.933-1.567-3.5-3.5-3.5s-3.5,1.567-3.5,3.5v4.473   C158.112,77.573,159.679,79.14,161.612,79.14z" fill="#1D1D1B"/><path d="M86.201,62.193c0-1.655-0.419-3.245-1.206-4.65c1.384-0.823,2.542-1.991,3.369-3.424   c1.273-2.205,1.611-4.774,0.952-7.233c-1.127-4.207-4.917-7.004-9.071-7.065c-0.02-1.611-0.453-3.199-1.281-4.633   c-1.273-2.205-3.329-3.782-5.788-4.441s-5.028-0.321-7.233,0.952c-1.433,0.828-2.601,1.985-3.424,3.37   c-1.405-0.788-2.995-1.206-4.65-1.206c-2.546,0-4.94,0.991-6.74,2.792c-1.8,1.801-2.792,4.194-2.792,6.741   c0,1.656,0.419,3.247,1.208,4.652c-3.567,2.13-5.45,6.447-4.323,10.654c0.659,2.459,2.236,4.515,4.441,5.788   c1.433,0.827,3.019,1.26,4.629,1.28c0.021,1.61,0.453,3.197,1.28,4.63c1.273,2.205,3.329,3.782,5.789,4.441   c0.821,0.22,1.654,0.329,2.482,0.329c1.652,0,3.282-0.433,4.75-1.281c1.433-0.827,2.601-1.985,3.424-3.369   c1.405,0.787,2.995,1.206,4.65,1.206c2.546,0,4.94-0.992,6.74-2.792C85.209,67.133,86.201,64.739,86.201,62.193z M82.301,50.62   c-0.338,0.585-0.884,1.004-1.538,1.179l-2.747,0.736c-1.208,0.324-2.151,1.267-2.475,2.475s0.022,2.497,0.906,3.381l2.011,2.011   c0.479,0.478,0.742,1.114,0.742,1.791s-0.264,1.312-0.742,1.791c-0.956,0.956-2.625,0.957-3.581,0l-2.011-2.011   c-0.886-0.885-2.176-1.23-3.381-0.906c-1.208,0.324-2.151,1.267-2.475,2.475l-0.736,2.748c-0.175,0.653-0.594,1.2-1.18,1.538   c-0.585,0.339-1.268,0.429-1.921,0.253c-1.349-0.361-2.152-1.752-1.791-3.101l0.736-2.748c0.324-1.208-0.022-2.497-0.906-3.381   c-0.665-0.665-1.559-1.025-2.475-1.025c-0.302,0-0.606,0.039-0.906,0.119l-2.747,0.736c-1.35,0.36-2.74-0.441-3.101-1.79   c-0.361-1.349,0.441-2.74,1.791-3.102l2.747-0.736c1.208-0.324,2.151-1.267,2.475-2.475s-0.022-2.497-0.906-3.381l-2.012-2.011   c-0.478-0.478-0.742-1.114-0.742-1.79s0.264-1.313,0.742-1.791c0.957-0.957,2.625-0.957,3.581,0l2.011,2.011   c0.885,0.884,2.174,1.228,3.381,0.906c1.208-0.324,2.151-1.267,2.475-2.475l0.736-2.748c0.175-0.653,0.594-1.199,1.18-1.537   c0.587-0.339,1.27-0.428,1.921-0.253c0.653,0.175,1.2,0.594,1.538,1.18c0.338,0.586,0.428,1.268,0.253,1.921l-0.736,2.748   c-0.324,1.208,0.022,2.497,0.906,3.381c0.884,0.884,2.172,1.227,3.381,0.906l2.747-0.736c1.349-0.362,2.74,0.442,3.102,1.791   C82.729,49.351,82.64,50.034,82.301,50.62z" fill="#1D1D1B"/><path d="M71.585,48.477C71.585,48.477,71.585,48.477,71.585,48.477c-2.38-2.38-6.252-2.379-8.633,0   c-2.38,2.38-2.38,6.253,0,8.633c1.153,1.154,2.687,1.789,4.317,1.789s3.164-0.635,4.316-1.788c1.154-1.153,1.789-2.687,1.789-4.317   S72.739,49.63,71.585,48.477C71.586,48.477,71.586,48.477,71.585,48.477z M67.902,53.427c-0.35,0.349-0.917,0.349-1.267,0   c0,0,0,0,0.001,0c-0.167-0.167-0.263-0.398-0.263-0.634s0.096-0.467,0.261-0.632c0.334-0.334,0.934-0.333,1.267-0.001   C68.251,52.509,68.251,53.078,67.902,53.427z" fill="#1D1D1B"/><path d="M139.035,144.125v-13.22c1.486-0.42,2.86-1.213,3.996-2.349c3.579-3.579,3.579-9.402,0-12.981   l-20.706-20.706c6.995-9.891,10.469-21.86,9.807-34.053c0-0.002,0-0.003,0-0.005c-0.719-13.317-6.308-25.844-15.739-35.275   c0,0,0,0,0,0C95.628,4.77,61.633,4.517,40.586,24.961c-0.199,0.184-0.392,0.375-0.583,0.566c-0.191,0.192-0.382,0.384-0.566,0.583   c-20.443,21.047-20.191,55.043,0.574,75.807c9.43,9.431,21.958,15.021,35.275,15.739c0.005,0,0.009,0,0.014,0   c0.974,0.052,1.946,0.078,2.916,0.078c11.178,0,22.032-3.454,31.119-9.878l20.707,20.707c0.601,0.601,1.272,1.102,1.993,1.508   v14.053l-8.071,9.299c-0.553,0.636-0.857,1.451-0.857,2.294v31.07c0,1.397,0.831,2.66,2.113,3.213   c0.447,0.193,0.918,0.287,1.386,0.287c0.876,0,1.74-0.329,2.402-0.954l6.526-6.154l6.526,6.154   c1.017,0.959,2.506,1.221,3.788,0.667c1.283-0.553,2.113-1.816,2.113-3.213v-31.07c0-0.843-0.304-1.657-0.856-2.294   L139.035,144.125z M125.207,64.438c-0.081,5.646-1.175,11.19-3.201,16.383c-0.682-4.884-2.337-10.139-4.926-15.541   c0.597-0.114,1.192-0.236,1.792-0.327c0.13-0.02,0.261-0.034,0.391-0.053c0.837-0.119,1.676-0.215,2.518-0.288   c0.153-0.013,0.306-0.03,0.459-0.042c0.909-0.071,1.821-0.112,2.735-0.13C125.053,64.439,125.13,64.439,125.207,64.438z    M74.007,96.482c-0.189,0.657-0.362,1.317-0.526,1.979c-0.052,0.208-0.099,0.417-0.148,0.626c-0.11,0.468-0.214,0.936-0.311,1.406   c-0.047,0.227-0.094,0.454-0.138,0.681c-0.099,0.509-0.188,1.02-0.272,1.531c-0.027,0.165-0.058,0.329-0.083,0.494   c-0.103,0.668-0.193,1.338-0.271,2.01c-0.019,0.168-0.034,0.337-0.051,0.505c-0.054,0.514-0.103,1.028-0.142,1.544   c-0.018,0.23-0.033,0.46-0.048,0.691c-0.031,0.48-0.054,0.96-0.072,1.44c-0.008,0.215-0.018,0.429-0.023,0.644   c-0.002,0.093-0.008,0.186-0.01,0.28c-10.177-1.369-19.635-6.029-26.95-13.346C26.875,78.883,26.665,49.27,44.49,30.955   c0.027-0.027,0.053-0.055,0.079-0.083c0.124-0.136,0.254-0.265,0.384-0.394c0.129-0.13,0.258-0.26,0.394-0.384   c0.028-0.026,0.056-0.052,0.083-0.079c9.072-8.829,20.912-13.232,32.753-13.232c12.066,0,24.133,4.576,33.26,13.703   c7.316,7.316,11.977,16.775,13.346,26.951c-0.078,0.002-0.157,0.007-0.235,0.009c-0.26,0.006-0.52,0.018-0.78,0.028   c-0.426,0.017-0.851,0.037-1.277,0.064c-0.274,0.017-0.547,0.035-0.821,0.057c-0.452,0.035-0.904,0.078-1.355,0.125   c-0.224,0.023-0.448,0.042-0.672,0.068c-0.145,0.017-0.289,0.037-0.434,0.055c-2.01-9.67-7.178-18.398-14.774-24.811   c-1.476-1.247-3.685-1.06-4.932,0.417c-1.247,1.477-1.061,3.685,0.417,4.932c6.365,5.374,10.705,12.679,12.414,20.775   c-0.467,0.121-0.934,0.244-1.398,0.377c-0.855,0.246-1.701,0.512-2.539,0.798c-5.026,1.716-9.729,4.147-14.033,7.251   c-0.718,0.518-1.425,1.054-2.121,1.61c-0.002,0.001-0.003,0.004-0.005,0.005c-1.539,1.222-3.063,2.584-4.527,4.047   c-0.737,0.737-1.447,1.488-2.126,2.247c-0.679,0.76-1.328,1.528-1.941,2.3c-0.002,0.002-0.003,0.004-0.004,0.006   c-0.552,0.693-1.086,1.396-1.601,2.11C78.418,84.938,75.718,90.503,74.007,96.482z M115.291,87.834l-15.489-15.49   c0.077-0.052,0.153-0.106,0.23-0.158c0.647-0.428,1.304-0.838,1.97-1.233c0.157-0.093,0.313-0.187,0.471-0.277   c0.706-0.406,1.421-0.794,2.147-1.163c0.236-0.12,0.476-0.231,0.714-0.347c0.568-0.276,1.141-0.543,1.72-0.797   c0.276-0.121,0.553-0.239,0.831-0.354c0.592-0.245,1.19-0.476,1.793-0.697c0.174-0.064,0.346-0.131,0.521-0.192   C114.034,74.729,115.799,82.011,115.291,87.834z M78.914,110.73c0.001-0.082,0-0.165,0.002-0.247   c0.018-0.904,0.059-1.806,0.129-2.704c0.013-0.167,0.031-0.333,0.046-0.5c0.073-0.824,0.166-1.646,0.283-2.464   c0.02-0.142,0.036-0.284,0.057-0.425c0.09-0.592,0.211-1.179,0.323-1.768c5.396,2.582,10.645,4.232,15.522,4.916   C90.092,109.556,84.556,110.647,78.914,110.73z M81.599,95.735c0.064-0.181,0.133-0.359,0.198-0.539   c0.217-0.594,0.444-1.183,0.685-1.766c0.117-0.284,0.237-0.566,0.36-0.847c0.249-0.571,0.512-1.137,0.784-1.697   c0.119-0.245,0.234-0.493,0.357-0.736c0.368-0.725,0.754-1.44,1.16-2.145c0.09-0.156,0.182-0.31,0.274-0.465   c0.392-0.663,0.801-1.318,1.227-1.963c0.054-0.082,0.112-0.162,0.166-0.243l15.487,15.487   C96.488,101.326,89.205,99.563,81.599,95.735z M112.147,100.769c0,0-0.001-0.001-0.001-0.001l-0.544-0.544l-20.44-20.44   c0.489-0.535,0.984-1.068,1.506-1.591c0.519-0.519,1.05-1.012,1.583-1.498l20.44,20.44l0,0l0.544,0.544c0,0,0,0,0,0l22.846,22.847   c0.413,0.413,0.64,0.96,0.64,1.541c0,0.581-0.228,1.127-0.64,1.54c-0.492,0.493-1.168,0.72-1.852,0.626   c-0.328-0.045-0.808-0.189-1.237-0.619L112.147,100.769z M140.962,178.677l-3.026-2.854c-1.349-1.272-3.454-1.272-4.803,0   l-3.026,2.854v-21.652l5.428-6.254l5.427,6.254V178.677z" fill="#1D1D1B"/></g></svg>